<?xml version="1.0" encoding="UTF-8" standalone="no"?>
<svg
   xmlns:dc="http://purl.org/dc/elements/1.1/"
   xmlns:cc="http://creativecommons.org/ns#"
   xmlns:rdf="http://www.w3.org/1999/02/22-rdf-syntax-ns#"
   xmlns:svg="http://www.w3.org/2000/svg"
   xmlns="http://www.w3.org/2000/svg"
   xmlns:xlink="http://www.w3.org/1999/xlink"
   xmlns:sodipodi="http://sodipodi.sourceforge.net/DTD/sodipodi-0.dtd"
   xmlns:inkscape="http://www.inkscape.org/namespaces/inkscape"
   version="1.1"
   id="svg2"
   height="1052.3622"
   width="744.09448"
   inkscape:version="0.91 r13725"
   sodipodi:docname="Diameters new.svg">
  <sodipodi:namedview
     pagecolor="#ffffff"
     bordercolor="#666666"
     borderopacity="1"
     objecttolerance="10"
     gridtolerance="10"
     guidetolerance="10"
     inkscape:pageopacity="0"
     inkscape:pageshadow="2"
     inkscape:window-width="1280"
     inkscape:window-height="752"
     id="namedview133"
     showgrid="false"
     inkscape:zoom="2.4890159"
     inkscape:cx="218.28085"
     inkscape:cy="988.51828"
     inkscape:window-x="0"
     inkscape:window-y="0"
     inkscape:window-maximized="1"
     inkscape:current-layer="layer1" />
  <defs
     id="defs4">
    <linearGradient
       id="linearGradient6827">
      <stop
         id="stop6829"
         offset="0"
         style="stop-color:#000000;stop-opacity:1;" />
      <stop
         id="stop6831"
         offset="1"
         style="stop-color:#000000;stop-opacity:0;" />
    </linearGradient>
    <radialGradient
       gradientUnits="userSpaceOnUse"
       gradientTransform="matrix(1,0,0,0.37167277,0,68.399985)"
       r="11.99707"
       fy="108.86045"
       fx="135.30365"
       cy="108.86045"
       cx="135.30365"
       id="radialGradient6833"
       xlink:href="#linearGradient6827" />
  </defs>
  <metadata
     id="metadata7">
    <rdf:RDF>
      <cc:Work
         rdf:about="">
        <dc:format>image/svg+xml</dc:format>
        <dc:type
           rdf:resource="http://purl.org/dc/dcmitype/StillImage" />
        <dc:title />
      </cc:Work>
    </rdf:RDF>
  </metadata>
  <g
     transform="translate(0,2.172441e-5)"
     id="layer1">
    <path
       transform="matrix(1.0796491,0,0,-1.0796491,-189.04186,536.04396)"
       d="M 414.28571,315.21933 A 114.28571,114.28571 0 0 1 300,429.50504 114.28571,114.28571 0 0 1 185.71429,315.21933 114.28571,114.28571 0 0 1 300,200.93362 114.28571,114.28571 0 0 1 414.28571,315.21933 Z"
       id="path4099"
       style="fill:none;stroke:#000000;stroke-width:1.16200686;stroke-miterlimit:4;stroke-opacity:1;stroke-dasharray:none" />
    <path
       style="fill:none;stroke:#000000;stroke-width:2.03351188;stroke-miterlimit:4;stroke-opacity:1;stroke-dasharray:none"
       id="path4976"
       d="M 414.28571,315.21933 A 114.28571,114.28571 0 0 1 300,429.50504 114.28571,114.28571 0 0 1 185.71429,315.21933 114.28571,114.28571 0 0 1 300,200.93362 114.28571,114.28571 0 0 1 414.28571,315.21933 Z"
       transform="matrix(0.61461079,0,0,-0.61461079,-49.530367,389.4549)" />
    <path
       transform="matrix(0.92463404,0,0,-0.92463404,-142.53734,487.18022)"
       d="M 414.28571,315.21933 A 114.28571,114.28571 0 0 1 300,429.50504 114.28571,114.28571 0 0 1 185.71429,315.21933 114.28571,114.28571 0 0 1 300,200.93362 114.28571,114.28571 0 0 1 414.28571,315.21933 Z"
       id="path4978"
       style="fill:none;stroke:#000000;stroke-width:1.35567462;stroke-miterlimit:4;stroke-opacity:1;stroke-dasharray:none" />
    <path
       style="fill:none;stroke:#000000;stroke-width:8.13404751;stroke-miterlimit:4;stroke-opacity:1;stroke-dasharray:none"
       id="path4980"
       d="M 414.28571,315.21933 A 114.28571,114.28571 0 0 1 300,429.50504 114.28571,114.28571 0 0 1 185.71429,315.21933 114.28571,114.28571 0 0 1 300,200.93362 114.28571,114.28571 0 0 1 414.28571,315.21933 Z"
       transform="matrix(0.14969266,0,0,-0.14969266,89.945072,242.90372)" />
    <path
       transform="matrix(0.30735006,0,0,-0.30735006,42.647852,292.60037)"
       d="M 414.28571,315.21933 A 114.28571,114.28571 0 0 1 300,429.50504 114.28571,114.28571 0 0 1 185.71429,315.21933 114.28571,114.28571 0 0 1 300,200.93362 114.28571,114.28571 0 0 1 414.28571,315.21933 Z"
       id="path4982"
       style="fill:none;stroke:#000000;stroke-width:4.06702375;stroke-miterlimit:4;stroke-opacity:1;stroke-dasharray:none" />
    <path
       style="fill:none;stroke:#000000;stroke-width:4.06702375;stroke-miterlimit:4;stroke-opacity:1;stroke-dasharray:none"
       id="path4984"
       d="M 414.28571,315.21933 A 114.28571,114.28571 0 0 1 300,429.50504 114.28571,114.28571 0 0 1 185.71429,315.21933 114.28571,114.28571 0 0 1 300,200.93362 114.28571,114.28571 0 0 1 414.28571,315.21933 Z"
       transform="matrix(0.30461921,0,0,-0.30461921,43.467107,291.73956)" />
    <path
       transform="matrix(0.45960713,0,0,-0.45960713,-3.029269,340.59475)"
       d="M 414.28571,315.21933 A 114.28571,114.28571 0 0 1 300,429.50504 114.28571,114.28571 0 0 1 185.71429,315.21933 114.28571,114.28571 0 0 1 300,200.93362 114.28571,114.28571 0 0 1 414.28571,315.21933 Z"
       id="path4986"
       style="fill:none;stroke:#000000;stroke-width:2.71134925;stroke-miterlimit:4;stroke-opacity:1;stroke-dasharray:none" />
    <path
       style="fill:none;stroke:#000000;stroke-width:1.01675594;stroke-miterlimit:4;stroke-opacity:1;stroke-dasharray:none"
       id="path4988"
       d="M 414.28571,315.21933 A 114.28571,114.28571 0 0 1 300,429.50504 114.28571,114.28571 0 0 1 185.71429,315.21933 114.28571,114.28571 0 0 1 300,200.93362 114.28571,114.28571 0 0 1 414.28571,315.21933 Z"
       transform="matrix(1.2346653,0,0,-1.2346653,-235.54672,584.90806)" />
    <path
       transform="matrix(1.3896823,0,0,-1.3896823,-282.05182,633.77242)"
       d="M 414.28571,315.21933 A 114.28571,114.28571 0 0 1 300,429.50504 114.28571,114.28571 0 0 1 185.71429,315.21933 114.28571,114.28571 0 0 1 300,200.93362 114.28571,114.28571 0 0 1 414.28571,315.21933 Z"
       id="path4990"
       style="fill:none;stroke:#000000;stroke-width:0.90378302;stroke-miterlimit:4;stroke-opacity:1;stroke-dasharray:none" />
    <path
       style="fill:none;stroke:#000000;stroke-width:1.95217144;stroke-miterlimit:4;stroke-opacity:1;stroke-dasharray:none"
       id="path4992"
       d="M 414.28571,315.21933 A 114.28571,114.28571 0 0 1 300,429.50504 114.28571,114.28571 0 0 1 185.71429,315.21933 114.28571,114.28571 0 0 1 300,200.93362 114.28571,114.28571 0 0 1 414.28571,315.21933 Z"
       transform="matrix(1.5370691,0,0,-1.5370691,-326.26786,680.23159)" />
    <path
       transform="matrix(1.6997177,0,0,-1.6997177,-375.06244,731.50157)"
       d="M 414.28571,315.21933 A 114.28571,114.28571 0 0 1 300,429.50504 114.28571,114.28571 0 0 1 185.71429,315.21933 114.28571,114.28571 0 0 1 300,200.93362 114.28571,114.28571 0 0 1 414.28571,315.21933 Z"
       id="path4994"
       style="fill:none;stroke:#000000;stroke-width:0.73945886;stroke-miterlimit:4;stroke-opacity:1;stroke-dasharray:none" />
    <path
       style="fill:none;stroke:#000000;stroke-width:0.67783725;stroke-miterlimit:4;stroke-opacity:1;stroke-dasharray:none"
       id="path4996"
       d="M 414.28571,315.21933 A 114.28571,114.28571 0 0 1 300,429.50504 114.28571,114.28571 0 0 1 185.71429,315.21933 114.28571,114.28571 0 0 1 300,200.93362 114.28571,114.28571 0 0 1 414.28571,315.21933 Z"
       transform="matrix(1.8547359,0,0,-1.8547359,-421.5679,780.3663)" />
    <path
       transform="matrix(2.0097544,0,0,-2.0097544,-468.07345,829.23113)"
       d="M 414.28571,315.21933 A 114.28571,114.28571 0 0 1 300,429.50504 114.28571,114.28571 0 0 1 185.71429,315.21933 114.28571,114.28571 0 0 1 300,200.93362 114.28571,114.28571 0 0 1 414.28571,315.21933 Z"
       id="path4998"
       style="fill:none;stroke:#000000;stroke-width:0.62569594;stroke-miterlimit:4;stroke-opacity:1;stroke-dasharray:none" />
    <path
       style="fill:none;stroke:#000000;stroke-width:0.58100343;stroke-miterlimit:4;stroke-opacity:1;stroke-dasharray:none"
       id="path5000"
       d="M 414.28571,315.21933 A 114.28571,114.28571 0 0 1 300,429.50504 114.28571,114.28571 0 0 1 185.71429,315.21933 114.28571,114.28571 0 0 1 300,200.93362 114.28571,114.28571 0 0 1 414.28571,315.21933 Z"
       transform="matrix(2.164773,0,0,-2.164773,-514.57903,878.09599)" />
    <path
       transform="matrix(2.3121304,0,0,-2.3121304,-558.78625,924.54589)"
       d="M 414.28571,315.21933 A 114.28571,114.28571 0 0 1 300,429.50504 114.28571,114.28571 0 0 1 185.71429,315.21933 114.28571,114.28571 0 0 1 300,200.93362 114.28571,114.28571 0 0 1 414.28571,315.21933 Z"
       id="path5002"
       style="fill:none;stroke:#000000;stroke-width:1.30144763;stroke-miterlimit:4;stroke-opacity:1;stroke-dasharray:none" />
    <path
       style="fill:none;stroke:#000000;stroke-width:0.50837797;stroke-miterlimit:4;stroke-opacity:1;stroke-dasharray:none"
       id="path5004"
       d="M 414.28571,315.21933 A 114.28571,114.28571 0 0 1 300,429.50504 114.28571,114.28571 0 0 1 185.71429,315.21933 114.28571,114.28571 0 0 1 300,200.93362 114.28571,114.28571 0 0 1 414.28571,315.21933 Z"
       transform="matrix(2.4748106,0,0,-2.4748106,-607.59031,975.82583)" />
    <path
       transform="matrix(2.6298296,0,0,-2.6298296,-654.09601,1024.6908)"
       d="M 414.28571,315.21933 A 114.28571,114.28571 0 0 1 300,429.50504 114.28571,114.28571 0 0 1 185.71429,315.21933 114.28571,114.28571 0 0 1 300,200.93362 114.28571,114.28571 0 0 1 414.28571,315.21933 Z"
       id="path5006"
       style="fill:none;stroke:#000000;stroke-width:0.4784734;stroke-miterlimit:4;stroke-opacity:1;stroke-dasharray:none" />
    <path
       style="fill:none;stroke:#000000;stroke-width:0.45189154;stroke-miterlimit:4;stroke-opacity:1;stroke-dasharray:none"
       id="path5008"
       d="M 414.28571,315.21933 A 114.28571,114.28571 0 0 1 300,429.50504 114.28571,114.28571 0 0 1 185.71429,315.21933 114.28571,114.28571 0 0 1 300,200.93362 114.28571,114.28571 0 0 1 414.28571,315.21933 Z"
       transform="matrix(2.7848486,0,0,-2.7848486,-700.60171,1073.5558)" />
    <path
       transform="matrix(2.9398678,0,0,-2.9398678,-747.10747,1122.4209)"
       d="M 414.28571,315.21933 A 114.28571,114.28571 0 0 1 300,429.50504 114.28571,114.28571 0 0 1 185.71429,315.21933 114.28571,114.28571 0 0 1 300,200.93362 114.28571,114.28571 0 0 1 414.28571,315.21933 Z"
       id="path5010"
       style="fill:none;stroke:#000000;stroke-width:0.42810777;stroke-miterlimit:4;stroke-opacity:1;stroke-dasharray:none" />
    <path
       style="fill:none;stroke:#000000;stroke-width:0.97608572;stroke-miterlimit:4;stroke-opacity:1;stroke-dasharray:none"
       id="path5012"
       d="M 414.28571,315.21933 A 114.28571,114.28571 0 0 1 300,429.50504 114.28571,114.28571 0 0 1 185.71429,315.21933 114.28571,114.28571 0 0 1 300,200.93362 114.28571,114.28571 0 0 1 414.28571,315.21933 Z"
       transform="matrix(3.0872102,0,0,-3.0872102,-791.31019,1168.866)" />
    <path
       transform="matrix(3.2499061,0,0,-3.2499061,-840.11896,1220.1509)"
       d="M 414.28571,315.21933 A 114.28571,114.28571 0 0 1 300,429.50504 114.28571,114.28571 0 0 1 185.71429,315.21933 114.28571,114.28571 0 0 1 300,200.93362 114.28571,114.28571 0 0 1 414.28571,315.21933 Z"
       id="path5014"
       style="fill:none;stroke:#000000;stroke-width:0.3873356;stroke-miterlimit:4;stroke-opacity:1;stroke-dasharray:none" />
    <path
       style="fill:none;stroke:#000000;stroke-width:0.36972943;stroke-miterlimit:4;stroke-opacity:1;stroke-dasharray:none"
       id="path5016"
       d="M 414.28571,315.21933 A 114.28571,114.28571 0 0 1 300,429.50504 114.28571,114.28571 0 0 1 185.71429,315.21933 114.28571,114.28571 0 0 1 300,200.93362 114.28571,114.28571 0 0 1 414.28571,315.21933 Z"
       transform="matrix(3.4049254,0,0,-3.4049254,-886.62475,1269.016)" />
    <path
       transform="matrix(3.5599447,0,0,-3.5599447,-933.13054,1317.8811)"
       d="M 414.28571,315.21933 A 114.28571,114.28571 0 0 1 300,429.50504 114.28571,114.28571 0 0 1 185.71429,315.21933 114.28571,114.28571 0 0 1 300,200.93362 114.28571,114.28571 0 0 1 414.28571,315.21933 Z"
       id="path5018"
       style="fill:none;stroke:#000000;stroke-width:0.35365424;stroke-miterlimit:4;stroke-opacity:1;stroke-dasharray:none" />
    <path
       style="fill:none;stroke:#000000;stroke-width:0.33891866;stroke-miterlimit:4;stroke-opacity:1;stroke-dasharray:none"
       id="path5020"
       d="M 414.28571,315.21933 A 114.28571,114.28571 0 0 1 300,429.50504 114.28571,114.28571 0 0 1 185.71429,315.21933 114.28571,114.28571 0 0 1 300,200.93362 114.28571,114.28571 0 0 1 414.28571,315.21933 Z"
       transform="matrix(3.714964,0,0,-3.714964,-979.63633,1366.7462)" />
    <path
       transform="matrix(3.8622974,0,0,-3.8622974,-1023.8364,1413.1885)"
       d="M 414.28571,315.21933 A 114.28571,114.28571 0 0 1 300,429.50504 114.28571,114.28571 0 0 1 185.71429,315.21933 114.28571,114.28571 0 0 1 300,200.93362 114.28571,114.28571 0 0 1 414.28571,315.21933 Z"
       id="path5022"
       style="fill:none;stroke:#000000;stroke-width:0.78086859;stroke-miterlimit:4;stroke-opacity:1;stroke-dasharray:none" />
    <path
       style="fill:none;stroke:#000000;stroke-width:0.31284797;stroke-miterlimit:4;stroke-opacity:1;stroke-dasharray:none"
       id="path5024"
       d="M 414.28571,315.21933 A 114.28571,114.28571 0 0 1 300,429.50504 114.28571,114.28571 0 0 1 185.71429,315.21933 114.28571,114.28571 0 0 1 300,200.93362 114.28571,114.28571 0 0 1 414.28571,315.21933 Z"
       transform="matrix(4.0250028,0,0,-4.0250028,-1072.648,1464.4764)" />
    <path
       transform="matrix(4.1800222,0,0,-4.1800222,-1119.1538,1513.3415)"
       d="M 414.28571,315.21933 A 114.28571,114.28571 0 0 1 300,429.50504 114.28571,114.28571 0 0 1 185.71429,315.21933 114.28571,114.28571 0 0 1 300,200.93362 114.28571,114.28571 0 0 1 414.28571,315.21933 Z"
       id="path5026"
       style="fill:none;stroke:#000000;stroke-width:0.30126101;stroke-miterlimit:4;stroke-opacity:1;stroke-dasharray:none" />
    <path
       style="fill:none;stroke:#000000;stroke-width:0.29050171;stroke-miterlimit:4;stroke-opacity:1;stroke-dasharray:none"
       id="path5028"
       d="M 414.28571,315.21933 A 114.28571,114.28571 0 0 1 300,429.50504 114.28571,114.28571 0 0 1 185.71429,315.21933 114.28571,114.28571 0 0 1 300,200.93362 114.28571,114.28571 0 0 1 414.28571,315.21933 Z"
       transform="matrix(4.3350416,0,0,-4.3350416,-1165.6596,1562.2066)" />
    <path
       transform="matrix(4.4900611,0,0,-4.4900611,-1212.1655,1611.0717)"
       d="M 414.28571,315.21933 A 114.28571,114.28571 0 0 1 300,429.50504 114.28571,114.28571 0 0 1 185.71429,315.21933 114.28571,114.28571 0 0 1 300,200.93362 114.28571,114.28571 0 0 1 414.28571,315.21933 Z"
       id="path5030"
       style="fill:none;stroke:#000000;stroke-width:0.28048441;stroke-miterlimit:4;stroke-opacity:1;stroke-dasharray:none" />
    <path
       style="fill:none;stroke:#000000;stroke-width:0.65072381;stroke-miterlimit:4;stroke-opacity:1;stroke-dasharray:none"
       id="path5032"
       d="M 414.28571,315.21933 A 114.28571,114.28571 0 0 1 300,429.50504 114.28571,114.28571 0 0 1 185.71429,315.21933 114.28571,114.28571 0 0 1 300,200.93362 114.28571,114.28571 0 0 1 414.28571,315.21933 Z"
       transform="matrix(4.6373883,0,0,-4.6373883,-1256.3636,1657.5121)" />
    <path
       transform="matrix(4.8001,0,0,-4.8001,-1305.1771,1708.802)"
       d="M 414.28571,315.21933 A 114.28571,114.28571 0 0 1 300,429.50504 114.28571,114.28571 0 0 1 185.71429,315.21933 114.28571,114.28571 0 0 1 300,200.93362 114.28571,114.28571 0 0 1 414.28571,315.21933 Z"
       id="path5034"
       style="fill:none;stroke:#000000;stroke-width:0.26238862;stroke-miterlimit:4;stroke-opacity:1;stroke-dasharray:none" />
    <path
       style="fill:none;stroke:#000000;stroke-width:0.25418898;stroke-miterlimit:4;stroke-opacity:1;stroke-dasharray:none"
       id="path5036"
       d="M 414.28571,315.21933 A 114.28571,114.28571 0 0 1 300,429.50504 114.28571,114.28571 0 0 1 185.71429,315.21933 114.28571,114.28571 0 0 1 300,200.93362 114.28571,114.28571 0 0 1 414.28571,315.21933 Z"
       transform="matrix(4.9551195,0,0,-4.9551195,-1351.683,1757.6671)" />
    <path
       transform="matrix(5.110139,0,0,-5.110139,-1398.1888,1806.5323)"
       d="M 414.28571,315.21933 A 114.28571,114.28571 0 0 1 300,429.50504 114.28571,114.28571 0 0 1 185.71429,315.21933 114.28571,114.28571 0 0 1 300,200.93362 114.28571,114.28571 0 0 1 414.28571,315.21933 Z"
       id="path5038"
       style="fill:none;stroke:#000000;stroke-width:0.24648629;stroke-miterlimit:4;stroke-opacity:1;stroke-dasharray:none" />
    <path
       style="fill:none;stroke:#000000;stroke-width:0.23923668;stroke-miterlimit:4;stroke-opacity:1;stroke-dasharray:none"
       id="path5040"
       d="M 414.28571,315.21933 A 114.28571,114.28571 0 0 1 300,429.50504 114.28571,114.28571 0 0 1 185.71429,315.21933 114.28571,114.28571 0 0 1 300,200.93362 114.28571,114.28571 0 0 1 414.28571,315.21933 Z"
       transform="matrix(5.2651585,0,0,-5.2651585,-1444.6947,1855.3974)" />
    <path
       transform="matrix(5.4124814,0,0,-5.4124814,-1488.8916,1901.8365)"
       d="M 414.28571,315.21933 A 114.28571,114.28571 0 0 1 300,429.50504 114.28571,114.28571 0 0 1 185.71429,315.21933 114.28571,114.28571 0 0 1 300,200.93362 114.28571,114.28571 0 0 1 414.28571,315.21933 Z"
       id="path5042"
       style="fill:none;stroke:#000000;stroke-width:0.55776328;stroke-miterlimit:4;stroke-opacity:1;stroke-dasharray:none" />
    <path
       style="fill:none;stroke:#000000;stroke-width:0.22594576;stroke-miterlimit:4;stroke-opacity:1;stroke-dasharray:none"
       id="path5044"
       d="M 414.28571,315.21933 A 114.28571,114.28571 0 0 1 300,429.50504 114.28571,114.28571 0 0 1 185.71429,315.21933 114.28571,114.28571 0 0 1 300,200.93362 114.28571,114.28571 0 0 1 414.28571,315.21933 Z"
       transform="matrix(5.5751976,0,0,-5.5751976,-1537.7064,1953.1277)" />
    <path
       transform="matrix(5.7302171,0,0,-5.7302171,-1584.2123,2001.9929)"
       d="M 414.28571,315.21933 A 114.28571,114.28571 0 0 1 300,429.50504 114.28571,114.28571 0 0 1 185.71429,315.21933 114.28571,114.28571 0 0 1 300,200.93362 114.28571,114.28571 0 0 1 414.28571,315.21933 Z"
       id="path5046"
       style="fill:none;stroke:#000000;stroke-width:0.21983913;stroke-miterlimit:4;stroke-opacity:1;stroke-dasharray:none" />
    <path
       style="fill:none;stroke:#000000;stroke-width:0.21405388;stroke-miterlimit:4;stroke-opacity:1;stroke-dasharray:none"
       id="path5048"
       d="M 414.28571,315.21933 A 114.28571,114.28571 0 0 1 300,429.50504 114.28571,114.28571 0 0 1 185.71429,315.21933 114.28571,114.28571 0 0 1 300,200.93362 114.28571,114.28571 0 0 1 414.28571,315.21933 Z"
       transform="matrix(5.8852366,0,0,-5.8852366,-1630.7181,2050.858)" />
    <path
       transform="matrix(6.0402562,0,0,-6.0402562,-1677.224,2099.7232)"
       d="M 414.28571,315.21933 A 114.28571,114.28571 0 0 1 300,429.50504 114.28571,114.28571 0 0 1 185.71429,315.21933 114.28571,114.28571 0 0 1 300,200.93362 114.28571,114.28571 0 0 1 414.28571,315.21933 Z"
       id="path5050"
       style="fill:none;stroke:#000000;stroke-width:0.20856532;stroke-miterlimit:4;stroke-opacity:1;stroke-dasharray:none" />
    <path
       style="fill:none;stroke:#000000;stroke-width:0.60529995;stroke-miterlimit:4;stroke-opacity:1;stroke-dasharray:none"
       id="path5052"
       d="M 414.28571,315.21933 A 114.28571,114.28571 0 0 1 300,429.50504 114.28571,114.28571 0 0 1 185.71429,315.21933 114.28571,114.28571 0 0 1 300,200.93362 114.28571,114.28571 0 0 1 414.28571,315.21933 Z"
       transform="matrix(6.18441,0,0,-6.18441,-1720.4701,2145.1633)" />
    <path
       transform="matrix(7.8991478,0,0,-7.8991478,-2234.8915,2685.6818)"
       d="M 414.28571,315.21933 A 114.28571,114.28571 0 0 1 300,429.50504 114.28571,114.28571 0 0 1 185.71429,315.21933 114.28571,114.28571 0 0 1 300,200.93362 114.28571,114.28571 0 0 1 414.28571,315.21933 Z"
       id="path5054"
       style="fill:none;stroke:#000000;stroke-width:0.19839139;stroke-miterlimit:4;stroke-opacity:1;stroke-dasharray:none" />
    <path
       style="fill:none;stroke:#000000;stroke-width:0.1936678;stroke-miterlimit:4;stroke-opacity:1;stroke-dasharray:none"
       id="path5056"
       d="M 414.28571,315.21933 A 114.28571,114.28571 0 0 1 300,429.50504 114.28571,114.28571 0 0 1 185.71429,315.21933 114.28571,114.28571 0 0 1 300,200.93362 114.28571,114.28571 0 0 1 414.28571,315.21933 Z"
       transform="matrix(6.5053149,0,0,-6.5053149,-1816.7416,2246.3187)" />
    <path
       transform="matrix(6.3502953,0,0,-6.3502953,-1770.2357,2197.4535)"
       d="M 414.28571,315.21933 A 114.28571,114.28571 0 0 1 300,429.50504 114.28571,114.28571 0 0 1 185.71429,315.21933 114.28571,114.28571 0 0 1 300,200.93362 114.28571,114.28571 0 0 1 414.28571,315.21933 Z"
       id="path5058"
       style="fill:none;stroke:#000000;stroke-width:0.19839139;stroke-miterlimit:4;stroke-opacity:1;stroke-dasharray:none" />
    <path
       style="fill:none;stroke:#000000;stroke-width:0.18916389;stroke-miterlimit:4;stroke-opacity:1;stroke-dasharray:none"
       id="path5060"
       d="M 414.28571,315.21933 A 114.28571,114.28571 0 0 1 300,429.50504 114.28571,114.28571 0 0 1 185.71429,315.21933 114.28571,114.28571 0 0 1 300,200.93362 114.28571,114.28571 0 0 1 414.28571,315.21933 Z"
       transform="matrix(6.6603345,0,0,-6.6603345,-1863.2475,2295.1839)" />
    <path
       transform="matrix(6.8153541,0,0,-6.8153541,-1909.7534,2344.049)"
       d="M 414.28571,315.21933 A 114.28571,114.28571 0 0 1 300,429.50504 114.28571,114.28571 0 0 1 185.71429,315.21933 114.28571,114.28571 0 0 1 300,200.93362 114.28571,114.28571 0 0 1 414.28571,315.21933 Z"
       id="path5062"
       style="fill:none;stroke:#000000;stroke-width:0.18486471;stroke-miterlimit:4;stroke-opacity:1;stroke-dasharray:none" />
    <path
       style="fill:none;stroke:#000000;stroke-width:0.43039298;stroke-miterlimit:4;stroke-opacity:1;stroke-dasharray:none"
       id="path5064"
       d="M 414.28571,315.21933 A 114.28571,114.28571 0 0 1 300,429.50504 114.28571,114.28571 0 0 1 185.71429,315.21933 114.28571,114.28571 0 0 1 300,200.93362 114.28571,114.28571 0 0 1 414.28571,315.21933 Z"
       transform="matrix(6.9703737,0,0,-6.9703737,-1956.2592,2392.9142)" />
    <path
       transform="matrix(7.1253932,0,0,-7.1253932,-2002.7651,2441.7794)"
       d="M 414.28571,315.21933 A 114.28571,114.28571 0 0 1 300,429.50504 114.28571,114.28571 0 0 1 185.71429,315.21933 114.28571,114.28571 0 0 1 300,200.93362 114.28571,114.28571 0 0 1 414.28571,315.21933 Z"
       id="path5066"
       style="fill:none;stroke:#000000;stroke-width:0.17682712;stroke-miterlimit:4;stroke-opacity:1;stroke-dasharray:none" />
    <path
       style="fill:none;stroke:#000000;stroke-width:0.17306484;stroke-miterlimit:4;stroke-opacity:1;stroke-dasharray:none"
       id="path5068"
       d="M 414.28571,315.21933 A 114.28571,114.28571 0 0 1 300,429.50504 114.28571,114.28571 0 0 1 185.71429,315.21933 114.28571,114.28571 0 0 1 300,200.93362 114.28571,114.28571 0 0 1 414.28571,315.21933 Z"
       transform="matrix(7.2804128,0,0,-7.2804128,-2049.271,2490.6445)" />
    <path
       transform="matrix(7.4354324,0,0,-7.4354324,-2095.7769,2539.5097)"
       d="M 414.28571,315.21933 A 114.28571,114.28571 0 0 1 300,429.50504 114.28571,114.28571 0 0 1 185.71429,315.21933 114.28571,114.28571 0 0 1 300,200.93362 114.28571,114.28571 0 0 1 414.28571,315.21933 Z"
       id="path5070"
       style="fill:none;stroke:#000000;stroke-width:0.16945931;stroke-miterlimit:4;stroke-opacity:1;stroke-dasharray:none" />
    <path
       style="fill:none;stroke:#000000;stroke-width:0.16600098;stroke-miterlimit:4;stroke-opacity:1;stroke-dasharray:none"
       id="path5072"
       d="M 414.28571,315.21933 A 114.28571,114.28571 0 0 1 300,429.50504 114.28571,114.28571 0 0 1 185.71429,315.21933 114.28571,114.28571 0 0 1 300,200.93362 114.28571,114.28571 0 0 1 414.28571,315.21933 Z"
       transform="matrix(7.590452,0,0,-7.590452,-2142.2827,2588.3749)" />
    <path
       transform="matrix(7.7454716,0,0,-7.7454716,-2188.7886,2637.2401)"
       d="M 414.28571,315.21933 A 114.28571,114.28571 0 0 1 300,429.50504 114.28571,114.28571 0 0 1 185.71429,315.21933 114.28571,114.28571 0 0 1 300,200.93362 114.28571,114.28571 0 0 1 414.28571,315.21933 Z"
       id="path5074"
       style="fill:none;stroke:#000000;stroke-width:0.48415387;stroke-miterlimit:4;stroke-opacity:1;stroke-dasharray:none" />
    <path
       transform="matrix(0.76208095,0,0,-0.76208095,-93.771415,435.94034)"
       d="M 414.28571,315.21933 A 114.28571,114.28571 0 0 1 300,429.50504 114.28571,114.28571 0 0 1 185.71429,315.21933 114.28571,114.28571 0 0 1 300,200.93362 114.28571,114.28571 0 0 1 414.28571,315.21933 Z"
       id="path5087"
       style="fill:none;stroke:#000000;stroke-width:3.90434289;stroke-miterlimit:4;stroke-opacity:1;stroke-dasharray:none" />
    <path
       transform="matrix(0.01496927,0,0,-0.01496927,130.36209,200.4363)"
       d="M 414.28571,315.21933 A 114.28571,114.28571 0 0 1 300,429.50504 114.28571,114.28571 0 0 1 185.71429,315.21933 114.28571,114.28571 0 0 1 300,200.93362 114.28571,114.28571 0 0 1 414.28571,315.21933 Z"
       id="path5195"
       style="fill:#000000;fill-opacity:1;stroke:#000000;stroke-width:8.13404751;stroke-miterlimit:4;stroke-opacity:1;stroke-dasharray:none" />
    <path
       id="path5307"
       d="M 134.374,-23.512032 135.89857,1052.8114"
       style="fill:none;stroke:#000000;stroke-width:3.12705994;stroke-linecap:butt;stroke-linejoin:miter;stroke-miterlimit:4;stroke-opacity:1;stroke-dasharray:none" />
    <path
       style="fill:none;stroke:#000000;stroke-width:2.73174858px;stroke-linecap:butt;stroke-linejoin:miter;stroke-opacity:1"
       d="M 767.41671,194.67195 -3.942446,196.19652"
       id="path5309" />
    <path
       style="fill:none;stroke:#000000;stroke-width:0.19839139;stroke-miterlimit:4;stroke-opacity:1;stroke-dasharray:none"
       id="path5311"
       d="M 414.28571,315.21933 A 114.28571,114.28571 0 0 1 300,429.50504 114.28571,114.28571 0 0 1 185.71429,315.21933 114.28571,114.28571 0 0 1 300,200.93362 114.28571,114.28571 0 0 1 414.28571,315.21933 Z"
       transform="matrix(8.9833446,0,0,-8.9833446,-2560.1505,3027.4416)" />
    <path
       transform="matrix(8.8284594,0,0,-8.8284594,-2513.685,2978.6188)"
       d="M 414.28571,315.21933 A 114.28571,114.28571 0 0 1 300,429.50504 114.28571,114.28571 0 0 1 185.71429,315.21933 114.28571,114.28571 0 0 1 300,200.93362 114.28571,114.28571 0 0 1 414.28571,315.21933 Z"
       id="path5313"
       style="fill:none;stroke:#000000;stroke-width:0.19839139;stroke-miterlimit:4;stroke-opacity:1;stroke-dasharray:none" />
    <path
       style="fill:none;stroke:#000000;stroke-width:0.19839139;stroke-miterlimit:4;stroke-opacity:1;stroke-dasharray:none"
       id="path5315"
       d="M 414.28571,315.21933 A 114.28571,114.28571 0 0 1 300,429.50504 114.28571,114.28571 0 0 1 185.71429,315.21933 114.28571,114.28571 0 0 1 300,200.93362 114.28571,114.28571 0 0 1 414.28571,315.21933 Z"
       transform="matrix(8.6735741,0,0,-8.6735741,-2467.2194,2929.7959)" />
    <path
       transform="matrix(8.5186889,0,0,-8.5186889,-2420.7538,2880.9731)"
       d="M 414.28571,315.21933 A 114.28571,114.28571 0 0 1 300,429.50504 114.28571,114.28571 0 0 1 185.71429,315.21933 114.28571,114.28571 0 0 1 300,200.93362 114.28571,114.28571 0 0 1 414.28571,315.21933 Z"
       id="path5317"
       style="fill:none;stroke:#000000;stroke-width:0.35216686;stroke-miterlimit:4;stroke-opacity:1;stroke-dasharray:none" />
    <path
       style="fill:none;stroke:#000000;stroke-width:0.19839139;stroke-miterlimit:4;stroke-opacity:1;stroke-dasharray:none"
       id="path5319"
       d="M 414.28571,315.21933 A 114.28571,114.28571 0 0 1 300,429.50504 114.28571,114.28571 0 0 1 185.71429,315.21933 114.28571,114.28571 0 0 1 300,200.93362 114.28571,114.28571 0 0 1 414.28571,315.21933 Z"
       transform="matrix(8.3638036,0,0,-8.3638036,-2374.2882,2832.1503)" />
    <path
       transform="matrix(8.2089184,0,0,-8.2089184,-2327.8227,2783.3275)"
       d="M 414.28571,315.21933 A 114.28571,114.28571 0 0 1 300,429.50504 114.28571,114.28571 0 0 1 185.71429,315.21933 114.28571,114.28571 0 0 1 300,200.93362 114.28571,114.28571 0 0 1 414.28571,315.21933 Z"
       id="path5321"
       style="fill:none;stroke:#000000;stroke-width:0.19839139;stroke-miterlimit:4;stroke-opacity:1;stroke-dasharray:none" />
    <path
       style="fill:none;stroke:#000000;stroke-width:0.19839139;stroke-miterlimit:4;stroke-opacity:1;stroke-dasharray:none"
       id="path5323"
       d="M 414.28571,315.21933 A 114.28571,114.28571 0 0 1 300,429.50504 114.28571,114.28571 0 0 1 185.71429,315.21933 114.28571,114.28571 0 0 1 300,200.93362 114.28571,114.28571 0 0 1 414.28571,315.21933 Z"
       transform="matrix(8.0540331,0,0,-8.0540331,-2281.3571,2734.5046)" />
    <rect
       y="99.711632"
       x="118.06146"
       height="17.720297"
       width="35.994354"
       id="rect6928"
       style="fill:#ffffff;fill-opacity:1;fill-rule:nonzero;stroke:none" />
    <text
       xml:space="preserve"
       style="font-style:normal;font-weight:normal;font-size:12px;line-height:125%;font-family:'Bitstream Vera Sans';text-align:center;letter-spacing:0px;word-spacing:0px;text-anchor:middle;fill:#000000;fill-opacity:1;fill-rule:nonzero;stroke:none"
       x="138.15533"
       y="111.67193"
       id="text3561"
       sodipodi:linespacing="125%"><tspan
         sodipodi:role="line"
         x="138.15533"
         y="111.67193"
         id="tspan3563"><tspan
           x="138.15533"
           y="111.67193"
           id="tspan3565">5cm</tspan></tspan></text>
    <rect
       style="fill:#ffffff;fill-opacity:1;fill-rule:nonzero;stroke:none"
       id="rect6940"
       width="35.994354"
       height="17.720297"
       x="118.06146"
       y="272.00461" />
    <text
       xml:space="preserve"
       style="font-style:normal;font-weight:normal;font-size:12px;line-height:125%;font-family:'Bitstream Vera Sans';text-align:center;letter-spacing:0px;word-spacing:0px;text-anchor:middle;fill:#000000;fill-opacity:1;fill-rule:nonzero;stroke:none"
       x="139.59283"
       y="283.9649"
       id="text3555"
       sodipodi:linespacing="125%"><tspan
         sodipodi:role="line"
         x="139.59283"
         y="283.9649"
         id="tspan3557"><tspan
           x="139.59283"
           y="283.9649"
           id="tspan3559">5cm</tspan></tspan></text>
    <rect
       y="362.87097"
       x="118.06146"
       height="17.720297"
       width="35.994354"
       id="rect6950"
       style="fill:#ffffff;fill-opacity:1;fill-rule:nonzero;stroke:none" />
    <text
       xml:space="preserve"
       style="font-style:normal;font-weight:normal;font-size:12px;line-height:125%;font-family:'Bitstream Vera Sans';text-align:center;letter-spacing:0px;word-spacing:0px;text-anchor:middle;fill:#000000;fill-opacity:1;fill-rule:nonzero;stroke:none"
       x="134.13872"
       y="374.83127"
       id="text3549"
       sodipodi:linespacing="125%"><tspan
         sodipodi:role="line"
         x="134.13872"
         y="374.83127"
         id="tspan3551"><tspan
           x="134.13872"
           y="374.83127"
           id="tspan3553">10cm</tspan></tspan></text>
    <rect
       style="fill:#ffffff;fill-opacity:1;fill-rule:nonzero;stroke:none"
       id="rect6960"
       width="33.618847"
       height="15.005433"
       x="679.06366"
       y="983.25287" />
    <text
       xml:space="preserve"
       style="font-style:normal;font-weight:normal;font-size:12px;line-height:125%;font-family:'Bitstream Vera Sans';text-align:center;letter-spacing:0px;word-spacing:0px;text-anchor:middle;fill:#000000;fill-opacity:1;fill-rule:nonzero;stroke:none"
       x="694.35559"
       y="995.03687"
       id="text3543"
       sodipodi:linespacing="125%"><tspan
         sodipodi:role="line"
         x="694.35559"
         y="995.03687"
         id="tspan3545"><tspan
           x="694.35559"
           y="995.03687"
           id="tspan3547">55cm</tspan></tspan></text>
    <rect
       y="985.289"
       x="501.29269"
       height="14.326716"
       width="38.709217"
       id="rect6970"
       style="fill:#ffffff;fill-opacity:1;fill-rule:nonzero;stroke:none" />
    <text
       xml:space="preserve"
       style="font-style:normal;font-weight:normal;font-size:12px;line-height:125%;font-family:'Bitstream Vera Sans';text-align:center;letter-spacing:0px;word-spacing:0px;text-anchor:middle;fill:#000000;fill-opacity:1;fill-rule:nonzero;stroke:none"
       x="516.58453"
       y="995.11597"
       id="text3537"
       sodipodi:linespacing="125%"><tspan
         sodipodi:role="line"
         x="516.58453"
         y="995.11597"
         id="tspan3539"><tspan
           x="516.58453"
           y="995.11597"
           id="tspan3541">50cm</tspan></tspan></text>
    <rect
       style="fill:#ffffff;fill-opacity:1;fill-rule:nonzero;stroke:none"
       id="rect6980"
       width="35.994354"
       height="17.720297"
       x="118.06146"
       y="716.5755" />
    <text
       xml:space="preserve"
       style="font-style:normal;font-weight:normal;font-size:12px;line-height:125%;font-family:'Bitstream Vera Sans';text-align:center;letter-spacing:0px;word-spacing:0px;text-anchor:middle;fill:#000000;fill-opacity:1;fill-rule:nonzero;stroke:none"
       x="134.34088"
       y="728.53577"
       id="text3531"
       sodipodi:linespacing="125%"><tspan
         sodipodi:role="line"
         x="134.34088"
         y="728.53577"
         id="tspan3533"><tspan
           x="134.34088"
           y="728.53577"
           id="tspan3535">30cm</tspan></tspan></text>
    <rect
       y="805.84149"
       x="118.06146"
       height="17.720297"
       width="35.994354"
       id="rect6990"
       style="fill:#ffffff;fill-opacity:1;fill-rule:nonzero;stroke:none" />
    <text
       xml:space="preserve"
       style="font-style:normal;font-weight:normal;font-size:12px;line-height:125%;font-family:'Bitstream Vera Sans';text-align:center;letter-spacing:0px;word-spacing:0px;text-anchor:middle;fill:#000000;fill-opacity:1;fill-rule:nonzero;stroke:none"
       x="134.34088"
       y="817.80176"
       id="text3525"
       sodipodi:linespacing="125%"><tspan
         sodipodi:role="line"
         x="134.34088"
         y="817.80176"
         id="tspan3527"><tspan
           x="134.34088"
           y="817.80176"
           id="tspan3529">35cm</tspan></tspan></text>
    <rect
       style="fill:#ffffff;fill-opacity:1;fill-rule:nonzero;stroke:none"
       id="rect7000"
       width="35.994354"
       height="17.720297"
       x="118.06146"
       y="893.66772" />
    <text
       xml:space="preserve"
       style="font-style:normal;font-weight:normal;font-size:12px;line-height:125%;font-family:'Bitstream Vera Sans';text-align:center;letter-spacing:0px;word-spacing:0px;text-anchor:middle;fill:#000000;fill-opacity:1;fill-rule:nonzero;stroke:none"
       x="134.50493"
       y="905.62799"
       id="text3519"
       sodipodi:linespacing="125%"><tspan
         sodipodi:role="line"
         x="134.50493"
         y="905.62799"
         id="tspan3521"><tspan
           x="134.50493"
           y="905.62799"
           id="tspan3523">40cm</tspan></tspan></text>
    <rect
       y="981.89545"
       x="118.06146"
       height="17.720297"
       width="35.994354"
       id="rect7010"
       style="fill:#ffffff;fill-opacity:1;fill-rule:nonzero;stroke:none" />
    <text
       xml:space="preserve"
       style="font-style:normal;font-weight:normal;font-size:12px;line-height:125%;font-family:'Bitstream Vera Sans';text-align:center;letter-spacing:0px;word-spacing:0px;text-anchor:middle;fill:#000000;fill-opacity:1;fill-rule:nonzero;stroke:none"
       x="134.50493"
       y="995.03687"
       id="text3513"
       sodipodi:linespacing="125%"><tspan
         sodipodi:role="line"
         x="134.50493"
         y="995.03687"
         id="tspan3515"><tspan
           x="134.50493"
           y="995.03687"
           id="tspan3517">45cm</tspan></tspan></text>
    <rect
       style="fill:#ffffff;fill-opacity:1;fill-rule:nonzero;stroke:none"
       id="rect7020"
       width="35.994354"
       height="17.720297"
       x="118.06146"
       y="628.26935" />
    <text
       xml:space="preserve"
       style="font-style:normal;font-weight:normal;font-size:12px;line-height:125%;font-family:'Bitstream Vera Sans';text-align:center;letter-spacing:0px;word-spacing:0px;text-anchor:middle;fill:#000000;fill-opacity:1;fill-rule:nonzero;stroke:none"
       x="134.35843"
       y="640.22961"
       id="text3507"
       sodipodi:linespacing="125%"><tspan
         sodipodi:role="line"
         x="134.35843"
         y="640.22961"
         id="tspan3509"><tspan
           x="134.35843"
           y="640.22961"
           id="tspan3511">25cm</tspan></tspan></text>
    <rect
       y="540.44312"
       x="118.06146"
       height="17.720297"
       width="35.994354"
       id="rect7030"
       style="fill:#ffffff;fill-opacity:1;fill-rule:nonzero;stroke:none" />
    <text
       xml:space="preserve"
       style="font-style:normal;font-weight:normal;font-size:12px;line-height:125%;font-family:'Bitstream Vera Sans';text-align:center;letter-spacing:0px;word-spacing:0px;text-anchor:middle;fill:#000000;fill-opacity:1;fill-rule:nonzero;stroke:none"
       x="134.35843"
       y="552.40344"
       id="text3501"
       sodipodi:linespacing="125%"><tspan
         sodipodi:role="line"
         x="134.35843"
         y="552.40344"
         id="tspan3503"><tspan
           x="134.35843"
           y="552.40344"
           id="tspan3505">20cm</tspan></tspan></text>
    <rect
       style="fill:#ffffff;fill-opacity:1;fill-rule:nonzero;stroke:none"
       id="rect7040"
       width="35.994354"
       height="17.720297"
       x="118.06146"
       y="451.65704" />
    <text
       xml:space="preserve"
       style="font-style:normal;font-weight:normal;font-size:12px;line-height:125%;font-family:'Bitstream Vera Sans';text-align:center;letter-spacing:0px;word-spacing:0px;text-anchor:middle;fill:#000000;fill-opacity:1;fill-rule:nonzero;stroke:none"
       x="134.13872"
       y="463.61734"
       id="text3495"
       sodipodi:linespacing="125%"><tspan
         sodipodi:role="line"
         x="134.13872"
         y="463.61734"
         id="tspan3497"><tspan
           x="134.13872"
           y="463.61734"
           id="tspan3499">15cm</tspan></tspan></text>
    <path
       transform="matrix(9.1382299,0,0,-9.1382299,-2606.6161,3076.2644)"
       d="M 414.28571,315.21933 A 114.28571,114.28571 0 0 1 300,429.50504 114.28571,114.28571 0 0 1 185.71429,315.21933 114.28571,114.28571 0 0 1 300,200.93362 114.28571,114.28571 0 0 1 414.28571,315.21933 Z"
       id="path7050"
       style="fill:none;stroke:#000000;stroke-width:0.19839139;stroke-miterlimit:4;stroke-opacity:1;stroke-dasharray:none" />
  </g>
</svg>
